<?xml version="1.0" encoding="UTF-8" standalone="no"?><!DOCTYPE svg PUBLIC "-//W3C//DTD SVG 1.1//EN" "http://www.w3.org/Graphics/SVG/1.1/DTD/svg11.dtd"><svg width="100%" height="100%" viewBox="0 0 800 800" version="1.1" xmlns="http://www.w3.org/2000/svg" xmlns:xlink="http://www.w3.org/1999/xlink" xml:space="preserve" xmlns:serif="http://www.serif.com/" style="fill-rule:evenodd;clip-rule:evenodd;stroke-linecap:round;stroke-linejoin:round;stroke-miterlimit:1.5;"><g id="Guides"><path d="M53.59,600l692.82,-400" style="fill:none;stroke:#000;stroke-opacity:0.19;stroke-width:3px;"/><path d="M200,746.41l400,-692.82" style="fill:none;stroke:#000;stroke-opacity:0.2;stroke-width:3px;"/><path d="M53.59,200l692.82,400" style="fill:none;stroke:#000;stroke-opacity:0.18;stroke-width:3px;"/><path d="M200,53.59l400,692.82" style="fill:none;stroke:#000;stroke-opacity:0.2;stroke-width:3px;"/><path d="M800,400l-800,0" style="fill:none;stroke:#000;stroke-opacity:0.22;stroke-width:3px;"/><path d="M400,800l0,-800" style="fill:none;stroke:#000;stroke-opacity:0.18;stroke-width:3px;"/></g><g id="Numbers"><g id="_12" serif:id="12" transform="matrix(1,0,0,1,-13.3556,-29.3823)"><g transform="matrix(0.99708,-0.0763649,0.0763649,0.99708,-12.5035,29.4277)"><g transform="matrix(64,0,0,64,378.542,178.208)"><path d="M0.282,-0.067l0,-0.444c-0.082,0.063 -0.138,0.095 -0.167,0.095c-0.013,0 -0.026,-0.005 -0.036,-0.016c-0.011,-0.011 -0.016,-0.024 -0.016,-0.038c0,-0.017 0.005,-0.029 0.016,-0.037c0.01,-0.008 0.028,-0.018 0.055,-0.03c0.039,-0.019 0.071,-0.038 0.094,-0.059c0.024,-0.02 0.045,-0.043 0.063,-0.069c0.018,-0.025 0.03,-0.041 0.036,-0.046c0.005,-0.006 0.016,-0.009 0.031,-0.009c0.017,0 0.031,0.006 0.041,0.02c0.011,0.013 0.016,0.032 0.016,0.055l0,0.559c0,0.065 -0.022,0.098 -0.067,0.098c-0.02,0 -0.036,-0.006 -0.048,-0.02c-0.012,-0.013 -0.018,-0.033 -0.018,-0.059Z" style="fill-rule:nonzero;"/></g></g><g transform="matrix(0.996069,0.0885793,-0.0885793,0.996069,17.1887,-36.2064)"><g transform="matrix(64,0,0,64,416.537,175.564)"><path d="M0.223,-0.115l0.255,0c0.025,0 0.045,0.005 0.058,0.015c0.013,0.011 0.02,0.025 0.02,0.043c0,0.016 -0.005,0.029 -0.016,0.04c-0.01,0.011 -0.026,0.017 -0.048,0.017l-0.359,0c-0.025,0 -0.044,-0.007 -0.057,-0.02c-0.014,-0.014 -0.021,-0.03 -0.021,-0.048c0,-0.012 0.005,-0.027 0.013,-0.047c0.009,-0.019 0.019,-0.034 0.029,-0.045c0.043,-0.045 0.083,-0.084 0.117,-0.116c0.035,-0.032 0.06,-0.053 0.075,-0.063c0.027,-0.019 0.049,-0.038 0.067,-0.057c0.017,-0.019 0.031,-0.038 0.04,-0.058c0.01,-0.02 0.014,-0.04 0.014,-0.059c0,-0.021 -0.005,-0.04 -0.015,-0.056c-0.01,-0.017 -0.023,-0.029 -0.04,-0.038c-0.017,-0.01 -0.036,-0.014 -0.056,-0.014c-0.043,0 -0.076,0.019 -0.101,0.056c-0.003,0.005 -0.008,0.018 -0.016,0.04c-0.008,0.022 -0.016,0.039 -0.026,0.05c-0.01,0.012 -0.024,0.018 -0.042,0.018c-0.017,0 -0.03,-0.005 -0.041,-0.016c-0.011,-0.011 -0.016,-0.026 -0.016,-0.044c0,-0.023 0.005,-0.046 0.015,-0.07c0.01,-0.025 0.025,-0.047 0.045,-0.067c0.02,-0.02 0.046,-0.036 0.077,-0.048c0.03,-0.012 0.066,-0.018 0.108,-0.018c0.05,0 0.092,0.008 0.127,0.023c0.023,0.011 0.043,0.025 0.06,0.043c0.018,0.018 0.031,0.039 0.041,0.063c0.009,0.024 0.014,0.049 0.014,0.075c0,0.04 -0.01,0.077 -0.03,0.11c-0.02,0.033 -0.041,0.059 -0.061,0.078c-0.021,0.018 -0.056,0.048 -0.105,0.088c-0.049,0.04 -0.083,0.071 -0.101,0.093c-0.008,0.009 -0.016,0.019 -0.024,0.032Z" style="fill-rule:nonzero;"/></g></g></g><g id="_11" serif:id="11" transform="matrix(1,0,0,1,-13.3556,-29.3823)"><g transform="matrix(0.820255,-0.571999,0.571999,0.820255,-85.7187,188.006)"><g transform="matrix(64,0,0,64,256.284,230.393)"><path d="M0.282,-0.067l0,-0.444c-0.082,0.063 -0.138,0.095 -0.167,0.095c-0.013,0 -0.026,-0.005 -0.036,-0.016c-0.011,-0.011 -0.016,-0.024 -0.016,-0.038c0,-0.017 0.005,-0.029 0.016,-0.037c0.01,-0.008 0.028,-0.018 0.055,-0.03c0.039,-0.019 0.071,-0.038 0.094,-0.059c0.024,-0.02 0.045,-0.043 0.063,-0.069c0.018,-0.025 0.03,-0.041 0.036,-0.046c0.005,-0.006 0.016,-0.009 0.031,-0.009c0.017,0 0.031,0.006 0.041,0.02c0.011,0.013 0.016,0.032 0.016,0.055l0,0.559c0,0.065 -0.022,0.098 -0.067,0.098c-0.02,0 -0.036,-0.006 -0.048,-0.02c-0.012,-0.013 -0.018,-0.033 -0.018,-0.059Z" style="fill-rule:nonzero;"/></g></g><g transform="matrix(0.896595,-0.442852,0.442852,0.896595,-62.8371,149.075)"><g transform="matrix(64,0,0,64,287.802,209.093)"><path d="M0.282,-0.067l0,-0.444c-0.082,0.063 -0.138,0.095 -0.167,0.095c-0.013,0 -0.026,-0.005 -0.036,-0.016c-0.011,-0.011 -0.016,-0.024 -0.016,-0.038c0,-0.017 0.005,-0.029 0.016,-0.037c0.01,-0.008 0.028,-0.018 0.055,-0.03c0.039,-0.019 0.071,-0.038 0.094,-0.059c0.024,-0.02 0.045,-0.043 0.063,-0.069c0.018,-0.025 0.03,-0.041 0.036,-0.046c0.005,-0.006 0.016,-0.009 0.031,-0.009c0.017,0 0.031,0.006 0.041,0.02c0.011,0.013 0.016,0.032 0.016,0.055l0,0.559c0,0.065 -0.022,0.098 -0.067,0.098c-0.02,0 -0.036,-0.006 -0.048,-0.02c-0.012,-0.013 -0.018,-0.033 -0.018,-0.059Z" style="fill-rule:nonzero;"/></g></g></g><g id="_10" serif:id="10" transform="matrix(1,0,0,1,-13.3556,-29.3823)"><g transform="matrix(0.422602,-0.906316,0.906316,0.422602,-202.568,355.061)"><g transform="matrix(64,0,0,64,177.377,336.512)"><path d="M0.282,-0.067l0,-0.444c-0.082,0.063 -0.138,0.095 -0.167,0.095c-0.013,0 -0.026,-0.005 -0.036,-0.016c-0.011,-0.011 -0.016,-0.024 -0.016,-0.038c0,-0.017 0.005,-0.029 0.016,-0.037c0.01,-0.008 0.028,-0.018 0.055,-0.03c0.039,-0.019 0.071,-0.038 0.094,-0.059c0.024,-0.02 0.045,-0.043 0.063,-0.069c0.018,-0.025 0.03,-0.041 0.036,-0.046c0.005,-0.006 0.016,-0.009 0.031,-0.009c0.017,0 0.031,0.006 0.041,0.02c0.011,0.013 0.016,0.032 0.016,0.055l0,0.559c0,0.065 -0.022,0.098 -0.067,0.098c-0.02,0 -0.036,-0.006 -0.048,-0.02c-0.012,-0.013 -0.018,-0.033 -0.018,-0.059Z" style="fill-rule:nonzero;"/></g></g><g transform="matrix(0.565833,-0.82452,0.82452,0.565833,-164.945,290.935)"><g transform="matrix(64,0,0,64,193.783,302.09)"><path d="M0.547,-0.351c0,0.053 -0.003,0.099 -0.01,0.138c-0.006,0.038 -0.018,0.073 -0.036,0.104c-0.022,0.039 -0.051,0.068 -0.086,0.089c-0.035,0.021 -0.074,0.031 -0.117,0.031c-0.05,0 -0.094,-0.014 -0.133,-0.042c-0.039,-0.028 -0.069,-0.066 -0.089,-0.116c-0.01,-0.027 -0.017,-0.057 -0.022,-0.09c-0.005,-0.032 -0.007,-0.068 -0.007,-0.106c0,-0.049 0.002,-0.093 0.008,-0.133c0.005,-0.039 0.013,-0.073 0.024,-0.101c0.019,-0.047 0.047,-0.083 0.084,-0.107c0.036,-0.025 0.08,-0.037 0.131,-0.037c0.033,0 0.064,0.005 0.091,0.016c0.028,0.011 0.052,0.027 0.072,0.048c0.021,0.021 0.038,0.047 0.053,0.078c0.025,0.054 0.037,0.13 0.037,0.228Zm-0.134,-0.01c0,-0.059 -0.003,-0.108 -0.011,-0.146c-0.007,-0.038 -0.019,-0.067 -0.036,-0.086c-0.017,-0.019 -0.04,-0.029 -0.07,-0.029c-0.043,0 -0.073,0.022 -0.09,0.065c-0.016,0.043 -0.025,0.11 -0.025,0.2c0,0.061 0.004,0.111 0.011,0.15c0.007,0.04 0.019,0.069 0.036,0.089c0.017,0.02 0.04,0.03 0.069,0.03c0.03,0 0.053,-0.01 0.07,-0.031c0.017,-0.021 0.029,-0.051 0.036,-0.089c0.007,-0.039 0.01,-0.09 0.01,-0.153Z" style="fill-rule:nonzero;"/></g></g></g><path id="_9" serif:id="9" d="M126.431,390.688c1.617,1.385 2.831,2.929 3.644,4.631c0.813,1.703 1.213,3.586 1.201,5.648c-0.012,1.959 -0.403,3.784 -1.173,5.478c-0.771,1.693 -1.842,3.156 -3.214,4.387c-1.372,1.231 -2.971,2.175 -4.798,2.831c-1.827,0.656 -3.74,0.978 -5.74,0.966c-2.146,-0.013 -4.18,-0.4 -6.103,-1.162c-1.922,-0.761 -3.588,-1.844 -4.996,-3.248c-1.409,-1.404 -2.503,-3.072 -3.283,-5.004c-0.78,-1.932 -1.163,-4.064 -1.15,-6.398c0.016,-2.687 0.52,-5.08 1.512,-7.178c0.992,-2.099 2.424,-3.861 4.297,-5.287c1.873,-1.427 4.229,-2.517 7.066,-3.271c2.838,-0.754 6.049,-1.12 9.632,-1.099c4,0.024 7.524,0.451 10.571,1.282c3.047,0.83 5.602,2.028 7.666,3.592c2.064,1.565 3.594,3.433 4.592,5.606c0.997,2.172 1.488,4.634 1.472,7.384c-0.016,2.708 -0.546,5.059 -1.589,7.053c-1.043,1.994 -2.334,3.507 -3.871,4.539c-1.537,1.033 -3.014,1.545 -4.431,1.537c-0.875,-0.006 -1.654,-0.333 -2.338,-0.983c-0.684,-0.65 -1.023,-1.475 -1.017,-2.475c0.006,-0.917 0.266,-1.738 0.781,-2.464c0.514,-0.726 1.283,-1.274 2.306,-1.643c1.253,-0.45 2.263,-1.205 3.03,-2.263c0.766,-1.058 1.154,-2.253 1.161,-3.587c0.008,-1.187 -0.288,-2.314 -0.886,-3.38c-0.598,-1.066 -1.446,-1.977 -2.546,-2.734c-2.22,-1.513 -6.152,-2.433 -11.796,-2.758Zm-9.567,0.662c-1.417,-0.008 -2.725,0.177 -3.925,0.555c-1.2,0.378 -2.24,0.914 -3.119,1.606c-0.879,0.693 -1.572,1.522 -2.077,2.488c-0.506,0.966 -0.762,2.022 -0.769,3.167c-0.012,1.98 0.827,3.662 2.517,5.047c1.689,1.385 3.93,2.086 6.722,2.102c2.77,0.017 4.983,-0.658 6.637,-2.023c1.654,-1.365 2.487,-3.1 2.499,-5.204c0.008,-1.291 -0.323,-2.528 -0.993,-3.709c-0.67,-1.181 -1.649,-2.145 -2.936,-2.892c-1.287,-0.748 -2.806,-1.126 -4.556,-1.137Z" style="fill-rule:nonzero;"/><path id="_8" serif:id="8" d="M160.311,559.01c-1.792,1.063 -3.77,1.577 -5.935,1.541c-2.165,-0.035 -4.283,-0.716 -6.355,-2.042c-2.071,-1.327 -3.856,-3.253 -5.355,-5.779c-1.266,-2.132 -2.099,-4.169 -2.501,-6.111c-0.402,-1.942 -0.433,-3.74 -0.095,-5.395c0.339,-1.654 0.967,-3.105 1.886,-4.353c0.919,-1.248 2.068,-2.282 3.448,-3.1c1.755,-1.042 3.591,-1.52 5.508,-1.435c1.916,0.086 3.845,0.765 5.786,2.035c-0.312,-1.873 -0.287,-3.596 0.076,-5.169c0.363,-1.572 1.025,-2.988 1.985,-4.248c0.96,-1.26 2.21,-2.348 3.751,-3.262c2.257,-1.34 4.628,-2.008 7.113,-2.005c2.485,0.003 4.874,0.753 7.168,2.25c2.294,1.497 4.292,3.679 5.993,6.546c1.765,2.974 2.755,5.826 2.971,8.557c0.216,2.73 -0.267,5.173 -1.447,7.327c-1.181,2.154 -2.9,3.901 -5.157,5.241c-4.819,2.86 -9.475,2.547 -13.967,-0.94c0.46,4.693 -1.165,8.14 -4.873,10.342Zm6.354,-29.827c-1.398,0.829 -2.446,1.839 -3.145,3.029c-0.698,1.19 -1.017,2.469 -0.956,3.838c0.062,1.369 0.475,2.698 1.241,3.988c1.084,1.827 2.603,2.998 4.554,3.511c1.952,0.513 4.021,0.121 6.207,-1.177c1.397,-0.829 2.456,-1.851 3.177,-3.066c0.72,-1.215 1.074,-2.497 1.06,-3.846c-0.013,-1.349 -0.386,-2.641 -1.12,-3.877c-0.744,-1.254 -1.71,-2.208 -2.896,-2.86c-1.187,-0.652 -2.488,-0.946 -3.903,-0.881c-1.415,0.064 -2.822,0.511 -4.219,1.341Zm-18.962,20.339c0.999,1.684 2.329,2.73 3.988,3.138c1.66,0.408 3.313,0.123 4.962,-0.855c1.522,-0.904 2.476,-2.185 2.861,-3.842c0.385,-1.658 0.083,-3.32 -0.906,-4.986c-0.5,-0.842 -1.089,-1.528 -1.767,-2.059c-0.678,-0.53 -1.4,-0.9 -2.168,-1.111c-0.767,-0.211 -1.557,-0.257 -2.371,-0.138c-0.813,0.12 -1.614,0.413 -2.402,0.881c-1.057,0.628 -1.866,1.429 -2.426,2.403c-0.56,0.975 -0.827,2.035 -0.8,3.182c0.026,1.147 0.369,2.276 1.029,3.387Z" style="fill-rule:nonzero;"/><path id="_7" serif:id="7" d="M260.064,663.857l-18.017,-10.419c-1.731,-1.002 -2.828,-1.997 -3.291,-2.986c-0.462,-0.99 -0.334,-2.107 0.386,-3.351c0.438,-0.758 1.472,-1.495 3.103,-2.213c1.63,-0.718 3.462,-1.493 5.496,-2.326c2.034,-0.834 4.316,-2.011 6.845,-3.533c2.528,-1.522 5.24,-3.6 8.135,-6.233c1.257,-1.175 2.246,-2.179 2.969,-3.012c0.723,-0.834 1.625,-1.936 2.707,-3.308c1.082,-1.372 1.934,-2.407 2.555,-3.107c1.443,-1.621 2.717,-2.586 3.823,-2.897c1.107,-0.311 2.237,-0.133 3.391,0.535c1.1,0.636 1.762,1.53 1.986,2.683c0.224,1.152 -0.096,2.477 -0.962,3.974c-0.668,1.154 -1.818,2.582 -3.453,4.284c-1.634,1.703 -3.801,3.62 -6.502,5.752c-2.702,2.132 -5.719,4.177 -9.054,6.135c-3.335,1.959 -6.972,3.723 -10.913,5.295l14.472,8.37c1.515,0.876 2.488,1.805 2.918,2.788c0.431,0.983 0.307,2.061 -0.371,3.233c-0.72,1.244 -1.581,1.817 -2.583,1.719c-1.002,-0.098 -2.215,-0.559 -3.64,-1.383Z" style="fill-rule:nonzero;"/><path id="_6" serif:id="6" d="M409.608,677.811c-1.405,1.697 -2.939,2.958 -4.6,3.781c-1.661,0.824 -3.523,1.243 -5.585,1.257c-1.979,0.013 -3.81,-0.344 -5.492,-1.072c-1.682,-0.729 -3.158,-1.771 -4.427,-3.127c-1.27,-1.356 -2.255,-2.959 -2.955,-4.808c-0.7,-1.85 -1.056,-3.785 -1.07,-5.806c-0.02,-2.937 0.634,-5.608 1.962,-8.013c1.327,-2.405 3.189,-4.287 5.587,-5.647c2.397,-1.36 5.116,-2.05 8.158,-2.071c3.5,-0.024 6.526,0.81 9.079,2.501c2.553,1.692 4.513,4.205 5.879,7.539c1.367,3.335 2.066,7.419 2.099,12.252c0.026,3.937 -0.356,7.461 -1.148,10.57c-0.792,3.11 -1.941,5.691 -3.448,7.743c-1.507,2.051 -3.34,3.605 -5.5,4.662c-2.159,1.056 -4.625,1.593 -7.395,1.612c-2.667,0.018 -5.019,-0.487 -7.058,-1.515c-2.038,-1.028 -3.578,-2.309 -4.619,-3.844c-1.042,-1.535 -1.568,-3.01 -1.577,-4.427c-0.006,-0.854 0.312,-1.632 0.953,-2.334c0.641,-0.703 1.462,-1.057 2.462,-1.064c0.875,-0.006 1.689,0.265 2.443,0.812c0.753,0.547 1.311,1.309 1.671,2.285c0.488,1.247 1.255,2.247 2.302,3.001c1.047,0.753 2.257,1.125 3.632,1.116c1.105,-0.008 2.201,-0.333 3.291,-0.976c1.089,-0.642 2.005,-1.508 2.748,-2.596c1.506,-2.219 2.375,-6.162 2.608,-11.831Zm-8.568,-19.349c-2.104,0.015 -3.838,0.886 -5.202,2.614c-1.363,1.728 -2.035,3.987 -2.016,6.779c0.012,1.896 0.346,3.524 1.001,4.884c0.655,1.36 1.548,2.396 2.678,3.107c1.129,0.711 2.371,1.062 3.725,1.053c1.292,-0.009 2.524,-0.361 3.697,-1.056c1.172,-0.695 2.113,-1.697 2.823,-3.004c0.71,-1.306 1.059,-2.835 1.047,-4.585c-0.019,-2.812 -0.764,-5.151 -2.234,-7.016c-1.471,-1.865 -3.311,-2.79 -5.519,-2.776Z" style="fill-rule:nonzero;"/><path id="_5" serif:id="5" d="M533.914,658.78l12.93,-7.29l-3.421,-9.694c-1.799,2.832 -3.788,4.862 -5.966,6.09c-1.742,0.982 -3.555,1.573 -5.438,1.774c-1.884,0.201 -3.722,0.048 -5.515,-0.46c-1.793,-0.508 -3.462,-1.367 -5.005,-2.577c-1.544,-1.211 -2.827,-2.723 -3.85,-4.538c-1.484,-2.632 -2.244,-5.36 -2.282,-8.184c-0.038,-2.825 0.696,-5.499 2.203,-8.023c1.507,-2.524 3.712,-4.604 6.616,-6.241c3.248,-1.831 6.222,-2.719 8.921,-2.662c2.699,0.057 4.907,0.624 6.626,1.699c1.719,1.076 2.905,2.195 3.56,3.356c0.399,0.708 0.483,1.546 0.251,2.514c-0.231,0.967 -0.792,1.702 -1.681,2.203c-1.525,0.86 -3.155,0.619 -4.892,-0.722c-1.636,-1.206 -3.325,-1.91 -5.065,-2.113c-1.741,-0.202 -3.373,0.126 -4.898,0.986c-1.397,0.788 -2.417,1.841 -3.061,3.16c-0.643,1.32 -0.892,2.776 -0.748,4.368c0.145,1.593 0.672,3.197 1.583,4.812c0.982,1.742 2.13,3.057 3.442,3.943c1.313,0.886 2.658,1.341 4.035,1.366c1.378,0.025 2.701,-0.321 3.972,-1.037c1.56,-0.88 2.569,-1.7 3.026,-2.459c0.456,-0.76 1.047,-1.972 1.771,-3.636c0.724,-1.664 1.494,-2.726 2.311,-3.186c0.889,-0.501 1.86,-0.624 2.913,-0.369c1.053,0.256 1.81,0.792 2.27,1.608c0.051,0.091 0.299,0.764 0.744,2.02l5.065,14.329c0.626,1.703 0.793,3.104 0.503,4.2c-0.291,1.097 -1.217,2.085 -2.777,2.965l-14.373,8.103c-2.831,1.596 -4.856,1.315 -6.073,-0.845c-0.532,-0.944 -0.617,-1.9 -0.255,-2.87c0.362,-0.969 1.215,-1.833 2.558,-2.59Z" style="fill-rule:nonzero;"/><path id="_4" serif:id="4" d="M620.895,531.516l5.031,2.91l7.854,-13.58c0.991,-1.714 2.122,-2.774 3.393,-3.183c1.271,-0.408 2.573,-0.226 3.908,0.546c0.342,0.198 0.653,0.462 0.932,0.791c0.278,0.33 0.539,0.733 0.78,1.21c0.242,0.477 0.465,0.955 0.669,1.434c0.205,0.479 0.454,1.068 0.747,1.767l10.888,25.43c0.72,1.668 1.19,2.968 1.408,3.901c0.219,0.932 0.083,1.823 -0.407,2.67c-1.585,2.741 -3.947,3.205 -7.085,1.39l-20.938,-12.109l-0.673,1.163c-0.803,1.389 -1.636,2.393 -2.5,3.013c-0.864,0.619 -1.936,0.559 -3.216,-0.182c-1.046,-0.605 -1.61,-1.388 -1.692,-2.35c-0.081,-0.961 0.274,-2.128 1.067,-3.498l0.954,-1.65l-5.031,-2.91c-1.389,-0.803 -2.244,-1.707 -2.566,-2.711c-0.322,-1.005 -0.185,-2.021 0.409,-3.049c0.584,-1.01 1.403,-1.625 2.458,-1.846c1.054,-0.22 2.257,0.061 3.61,0.843Zm17.818,-5.218l-6.727,11.632l15.717,9.09l-8.99,-20.722Z" style="fill-rule:nonzero;"/><path id="_3" serif:id="3" d="M680.746,398.633c-0.002,1.916 0.56,3.568 1.683,4.954c1.124,1.387 2.738,2.081 4.843,2.082c1.604,0.001 2.984,-0.55 4.142,-1.653c1.157,-1.103 1.736,-2.592 1.737,-4.467c0.001,-1.271 -0.175,-2.318 -0.528,-3.141c-0.354,-0.823 -0.822,-1.475 -1.405,-1.954c-0.583,-0.48 -1.333,-0.934 -2.249,-1.362c-0.916,-0.427 -1.781,-0.819 -2.593,-1.174c-0.437,-0.208 -0.781,-0.583 -1.03,-1.125c-0.25,-0.542 -0.374,-1.167 -0.374,-1.876c0.001,-0.833 0.34,-1.598 1.018,-2.296c0.677,-0.697 1.579,-1.045 2.704,-1.044c1.083,0 2.223,0.329 3.421,0.987c1.197,0.657 2.337,1.616 3.419,2.877c1.083,1.262 1.951,2.83 2.606,4.706c0.655,1.875 0.981,3.969 0.979,6.282c-0.001,2.02 -0.279,3.864 -0.832,5.53c-0.553,1.666 -1.351,3.114 -2.394,4.342c-1.043,1.228 -2.252,2.155 -3.627,2.778c-1.376,0.624 -2.855,0.936 -4.439,0.934c-2.083,-0.001 -3.869,-0.456 -5.358,-1.363c-1.489,-0.908 -2.941,-2.206 -4.356,-3.894c-0.876,1.624 -1.877,2.993 -3.003,4.107c-1.126,1.113 -2.372,1.951 -3.737,2.512c-1.365,0.562 -2.839,0.842 -4.422,0.841c-1.896,-0.002 -3.729,-0.384 -5.499,-1.145c-1.771,-0.762 -3.348,-1.883 -4.732,-3.364c-1.384,-1.48 -2.466,-3.236 -3.246,-5.268c-0.78,-2.032 -1.168,-4.277 -1.166,-6.735c0.002,-2.5 0.451,-4.739 1.349,-6.718c0.897,-1.978 2.018,-3.607 3.363,-4.888c1.345,-1.28 2.736,-2.247 4.174,-2.903c1.438,-0.655 2.626,-0.982 3.563,-0.981c1.209,0.001 2.182,0.392 2.921,1.174c0.739,0.782 1.108,1.756 1.107,2.923c0,0.583 -0.172,1.145 -0.517,1.687c-0.344,0.541 -0.756,0.895 -1.235,1.061c-2.897,1.081 -5.048,2.241 -6.456,3.48c-1.407,1.238 -2.111,2.982 -2.113,5.232c-0.001,1.292 0.315,2.537 0.95,3.735c0.634,1.199 1.576,2.189 2.826,2.971c1.249,0.783 2.697,1.174 4.342,1.176c2.438,0.002 4.35,-0.663 5.736,-1.996c1.387,-1.332 2.081,-3.186 2.083,-5.561c0,-0.416 -0.041,-1.062 -0.123,-1.937c-0.083,-0.875 -0.124,-1.438 -0.124,-1.688c0.001,-1.146 0.288,-2.031 0.861,-2.655c0.574,-0.625 1.371,-0.937 2.392,-0.936c1,0.001 1.807,0.377 2.421,1.127c0.614,0.751 0.92,1.865 0.919,3.345l-0.001,1.281Z" style="fill-rule:nonzero;"/><path id="_2" serif:id="2" d="M623.6,266.315l8.102,14.158c0.807,1.411 1.134,2.652 0.979,3.725c-0.154,1.072 -0.728,1.893 -1.723,2.462c-0.886,0.507 -1.804,0.643 -2.755,0.407c-0.952,-0.236 -1.769,-0.951 -2.452,-2.144l-11.424,-19.962c-0.776,-1.356 -1.006,-2.629 -0.69,-3.818c0.316,-1.189 0.98,-2.073 1.992,-2.652c0.651,-0.373 1.655,-0.623 3.01,-0.75c1.355,-0.128 2.506,-0.078 3.452,0.149c3.871,0.977 7.251,1.923 10.139,2.838c2.889,0.916 4.851,1.629 5.887,2.14c1.898,0.882 3.657,1.514 5.279,1.894c1.622,0.38 3.136,0.509 4.543,0.388c1.407,-0.121 2.644,-0.486 3.711,-1.097c1.157,-0.662 2.034,-1.53 2.632,-2.604c0.597,-1.075 0.878,-2.231 0.841,-3.47c-0.037,-1.239 -0.377,-2.419 -1.018,-3.54c-1.356,-2.369 -3.461,-3.636 -6.317,-3.802c-0.375,-0.026 -1.289,0.095 -2.744,0.364c-1.454,0.268 -2.66,0.322 -3.616,0.161c-0.956,-0.161 -1.729,-0.757 -2.319,-1.787c-0.518,-0.904 -0.649,-1.826 -0.393,-2.764c0.255,-0.938 0.898,-1.702 1.928,-2.292c1.248,-0.714 2.71,-1.179 4.387,-1.394c1.677,-0.216 3.385,-0.083 5.125,0.398c1.739,0.481 3.437,1.381 5.093,2.702c1.656,1.321 3.141,3.129 4.455,5.426c1.583,2.766 2.499,5.374 2.749,7.824c0.146,1.596 -0.013,3.164 -0.477,4.702c-0.465,1.537 -1.209,2.953 -2.232,4.247c-1.024,1.294 -2.25,2.35 -3.679,3.168c-2.242,1.283 -4.599,1.893 -7.07,1.832c-2.472,-0.062 -4.559,-0.374 -6.261,-0.936c-1.702,-0.563 -4.443,-1.568 -8.225,-3.016c-3.781,-1.449 -6.577,-2.328 -8.386,-2.637c-0.736,-0.154 -1.577,-0.261 -2.523,-0.32Z" style="fill-rule:nonzero;"/><path id="_1" serif:id="1" d="M525.41,175.226l13.618,-24.965c-6.591,1.032 -10.691,1.109 -12.301,0.232c-0.768,-0.42 -1.282,-1.097 -1.542,-2.034c-0.261,-0.937 -0.171,-1.808 0.268,-2.613c0.509,-0.933 1.175,-1.459 2,-1.579c0.825,-0.119 2.167,-0.123 4.028,-0.009c2.781,0.164 5.15,0.032 7.104,-0.397c1.955,-0.429 3.833,-1.077 5.635,-1.945c1.803,-0.868 2.949,-1.382 3.44,-1.541c0.49,-0.16 1.165,-0.005 2.025,0.464c0.969,0.528 1.542,1.327 1.718,2.397c0.176,1.069 -0.095,2.262 -0.813,3.578l-17.135,31.412c-2.005,3.676 -4.26,4.831 -6.766,3.464c-1.116,-0.608 -1.807,-1.472 -2.075,-2.591c-0.268,-1.119 -0.002,-2.41 0.796,-3.873Z" style="fill-rule:nonzero;"/></g><circle cx="400" cy="400" r="323.372" style="fill:none;stroke:#000;stroke-width:3px;"/></svg>