<?xml version="1.0" encoding="UTF-8" standalone="no"?><!DOCTYPE svg PUBLIC "-//W3C//DTD SVG 1.1//EN" "http://www.w3.org/Graphics/SVG/1.1/DTD/svg11.dtd"><svg width="100%" height="100%" viewBox="0 0 800 800" version="1.1" xmlns="http://www.w3.org/2000/svg" xmlns:xlink="http://www.w3.org/1999/xlink" xml:space="preserve" xmlns:serif="http://www.serif.com/" style="fill-rule:evenodd;clip-rule:evenodd;stroke-linecap:round;stroke-linejoin:round;stroke-miterlimit:1.5;"><path d="M754.925,221.953c0,-98.174 -79.705,-177.88 -177.88,-177.88l-355.76,0c-98.174,0 -177.879,79.706 -177.879,177.88l0,355.76c0,98.174 79.705,177.88 177.879,177.88l355.76,0c98.175,0 177.88,-79.706 177.88,-177.88l0,-355.76Z" style="fill:none;stroke:#000;stroke-width:3px;"/><path d="M159.53,557.835l157.835,-157.835l-157.835,-157.835l81.8,-81.8l157.835,157.835l157.836,-157.835l81.8,81.8l-157.836,157.835l157.836,157.835l-81.8,81.8l-157.836,-157.835l-157.835,157.835l-81.8,-81.8Z" style="fill:none;stroke:#000;stroke-width:3px;"/></svg>