<?xml version="1.0" encoding="UTF-8" standalone="no"?><!DOCTYPE svg PUBLIC "-//W3C//DTD SVG 1.1//EN" "http://www.w3.org/Graphics/SVG/1.1/DTD/svg11.dtd"><svg width="100%" height="100%" viewBox="0 0 800 800" version="1.1" xmlns="http://www.w3.org/2000/svg" xmlns:xlink="http://www.w3.org/1999/xlink" xml:space="preserve" xmlns:serif="http://www.serif.com/" style="fill-rule:evenodd;clip-rule:evenodd;stroke-linecap:round;stroke-linejoin:round;stroke-miterlimit:1.5;"><g id="Clock"><circle id="Face" cx="400" cy="400" r="323.372" style="fill:none;stroke:#000;stroke-width:3px;"/><g id="Numbers"><g id="_12" serif:id="12" transform="matrix(1,0,0,1,-13.3556,-29.3823)"><g transform="matrix(0.99708,-0.0763649,0.0763649,0.99708,-12.5035,29.4277)"><text x="378.542px" y="178.208px" style="font-family:'ArialRoundedMTBold', 'Arial Rounded MT Bold', sans-serif;font-size:64px;">1</text></g><g transform="matrix(0.996069,0.0885793,-0.0885793,0.996069,17.1887,-36.2064)"><text x="416.537px" y="175.564px" style="font-family:'ArialRoundedMTBold', 'Arial Rounded MT Bold', sans-serif;font-size:64px;">2</text></g></g><g id="_11" serif:id="11" transform="matrix(1,0,0,1,-13.3556,-29.3823)"><g transform="matrix(0.820255,-0.571999,0.571999,0.820255,-85.7187,188.006)"><text x="256.284px" y="230.393px" style="font-family:'ArialRoundedMTBold', 'Arial Rounded MT Bold', sans-serif;font-size:64px;">1</text></g><g transform="matrix(0.896595,-0.442852,0.442852,0.896595,-62.8371,149.075)"><text x="287.802px" y="209.093px" style="font-family:'ArialRoundedMTBold', 'Arial Rounded MT Bold', sans-serif;font-size:64px;">1</text></g></g><g id="_10" serif:id="10" transform="matrix(1,0,0,1,-13.3556,-29.3823)"><g transform="matrix(0.422602,-0.906316,0.906316,0.422602,-202.568,355.061)"><text x="177.377px" y="336.512px" style="font-family:'ArialRoundedMTBold', 'Arial Rounded MT Bold', sans-serif;font-size:64px;">1</text></g><g transform="matrix(0.565833,-0.82452,0.82452,0.565833,-164.945,290.935)"><text x="193.783px" y="302.09px" style="font-family:'ArialRoundedMTBold', 'Arial Rounded MT Bold', sans-serif;font-size:64px;">0</text></g></g><g id="_9" serif:id="9" transform="matrix(0.00594611,-0.999982,0.999982,0.00594611,-872.974,270.576)"><text x="-140.23px" y="1020.63px" style="font-family:'ArialRoundedMTBold', 'Arial Rounded MT Bold', sans-serif;font-size:64px;">9</text></g><g id="_8" serif:id="8" transform="matrix(-0.510393,-0.859941,0.859941,-0.510393,-1171.15,1363.27)"><text x="7.761px" y="1589.65px" style="font-family:'ArialRoundedMTBold', 'Arial Rounded MT Bold', sans-serif;font-size:64px;">8</text></g><g id="_7" serif:id="7" transform="matrix(-0.865664,-0.500626,0.500626,-0.865664,-256.713,2636.26)"><text x="530.111px" y="2011.52px" style="font-family:'ArialRoundedMTBold', 'Arial Rounded MT Bold', sans-serif;font-size:64px;">7</text></g><g id="_6" serif:id="6" transform="matrix(-0.999977,0.00673888,-0.00673888,-0.999977,1728.98,2658.86)"><text x="1294.4px" y="2014.68px" style="font-family:'ArialRoundedMTBold', 'Arial Rounded MT Bold', sans-serif;font-size:64px;">6</text></g><g id="_5" serif:id="5" transform="matrix(-0.871096,0.491112,-0.491112,-0.871096,2944.72,1020.43)"><text x="1892.81px" y="1537.1px" style="font-family:'ArialRoundedMTBold', 'Arial Rounded MT Bold', sans-serif;font-size:64px;">5</text></g><g id="_4" serif:id="4" transform="matrix(-0.500626,0.865664,-0.865664,-0.500626,2320.88,-889.954)"><text x="2059.16px" y="763.959px" style="font-family:'ArialRoundedMTBold', 'Arial Rounded MT Bold', sans-serif;font-size:64px;">4</text></g><g id="_3" serif:id="3" transform="matrix(-0.000792842,1,-1,-0.000792842,779.884,-1349.37)"><text x="1730.55px" y="125.408px" style="font-family:'ArialRoundedMTBold', 'Arial Rounded MT Bold', sans-serif;font-size:64px;">3</text></g><g id="_2" serif:id="2" transform="matrix(0.496698,0.867924,-0.867924,0.496698,-93.2311,-691.364)"><text x="1172.96px" y="-139.103px" style="font-family:'ArialRoundedMTBold', 'Arial Rounded MT Bold', sans-serif;font-size:64px;">2</text></g><g id="_1" serif:id="1" transform="matrix(0.877884,0.478873,-0.478873,0.877884,-104.019,-100.931)"><text x="666.747px" y="-54.702px" style="font-family:'ArialRoundedMTBold', 'Arial Rounded MT Bold', sans-serif;font-size:64px;">1</text></g></g></g></svg>